# xmcd CD database file
#
# Track frame offsets:
#	150
#	15078
#	32257
#	43193
#	58951
#	74098
#	91198
#	108071
#	124720
#	144890
#	167249
#	179174
#	192445
#	208419
#	221625
#	237522
#	249737
#	267808
#
# Disc length: 3812 seconds
#
# Revision: 0
# Processed by: cddbd v1.5.2PL0 Copyright (c) Steve Scherf et al.
# Submitted via: CDex 1.51
#
DISCID=0d0ee212
DTITLE=The Robbers Dogs Jazz Band - What a Little Moonlight Can Do
DYEAR=2002
DGENRE=Jazz
TTITLE0=What a Little Moonlight Can Do (Woods)
TTITLE1=Tishomingo Blues (Spencer Williams)
TTITLE2=Goody Goody (Malneck-Mercer)
TTITLE3=The Man I Love (Gershwin-Gershwin)
TTITLE4=Tchaikovsky's Lament (Tchaikovsky-Wiard)
TTITLE5=Melancholy Blues (Bloom-Melrose)
TTITLE6=Just Squeeze Me (Ellington)
TTITLE7=Mabel's Dream (Smith)
TTITLE8=Lover Come Back to Me (Romberg-Hammerstein)
TTITLE9=I Got It Bad and That Ain't Good (Ellington-Webster)
TTITLE10=My Inspiration (Haggart)
TTITLE11=Georgia On My Mind (Carmichael-Gorrell)
TTITLE12=Palesteena (Conrad-Robinson)
TTITLE13=Them There Eyes (Pinkard-Tracey-Tauber)
TTITLE14=Happy Feet (Ager-Yellen)
TTITLE15=Heart and Soul (Carmichael- Loesser)
TTITLE16=If I Were a Bell (Loesser)
TTITLE17=Cabaret (Kander-Ebb)
EXTD=YEAR: 2002
EXTT0=
EXTT1=
EXTT2=
EXTT3=
EXTT4=
EXTT5=
EXTT6=
EXTT7=
EXTT8=
EXTT9=
EXTT10=
EXTT11=
EXTT12=
EXTT13=
EXTT14=
EXTT15=
EXTT16=
EXTT17=
PLAYORDER=
